Coordinates
version=1
nRows=31
nColumns=24
inDegrees=yes

Units are S.I. units (second, meters, Newtons, ...)
Angles are in degrees.

endheader
time	pelvis_tilt	pelvis_list	pelvis_rotation	pelvis_tx	pelvis_ty	pelvis_tz	hip_flexion_r	hip_adduction_r	hip_rotation_r	knee_angle_r	ankle_angle_r	subtalar_angle_r	mtp_angle_r	hip_flexion_l	hip_adduction_l	hip_rotation_l	knee_angle_l	ankle_angle_l	subtalar_angle_l	mtp_angle_l	lumbar_extension	lumbar_bending	lumbar_rotation
47.49800000	4.84455933	-1.84559258	-0.77772078	0.60102028	1.04559875	-0.02160049	-5.02626267	-2.90617367	-6.95037445	-15.18831557	12.58125773	-0.00000082	0.00000000	26.81965596	1.38076320	0.20135362	-8.53464785	-2.08115384	0.00000249	0.00000000	-19.54310531	-0.47001089	-4.72635202
47.50000000	4.84455933	-1.84559258	-0.77772078	0.60102028	1.04559875	-0.02160049	-5.03710084	-2.90617367	-6.95037445	-15.43121950	12.64740434	-0.00000082	0.00000000	26.79756392	1.38076320	0.20135362	-8.73526248	-2.15995095	0.00000249	0.00000000	-19.54310531	-0.47001089	-4.72635202
47.50200000	4.84455933	-1.84559258	-0.77772078	0.60102028	1.04559875	-0.02160049	-5.04576331	-2.90617367	-6.95037445	-15.68135748	12.71327819	-0.00000082	0.00000000	26.77352565	1.38076320	0.20135362	-8.94385418	-2.25398690	0.00000249	0.00000000	-19.54310531	-0.47001089	-4.72635202
47.50400000	4.84455933	-1.84559258	-0.77772078	0.60102028	1.04559875	-0.02160049	-5.05206611	-2.90617367	-6.95037445	-15.93891777	12.77868857	-0.00000082	0.00000000	26.74751208	1.38076320	0.20135362	-9.15871601	-2.36371928	0.00000249	0.00000000	-19.54310531	-0.47001089	-4.72635202
47.50600000	4.84455933	-1.84559258	-0.77772078	0.60102028	1.04559875	-0.02160049	-5.05611401	-2.90617367	-6.95037445	-16.20426013	12.84339555	-0.00000082	0.00000000	26.71973848	1.38076320	0.20135362	-9.37799404	-2.48936076	0.00000249	0.00000000	-19.54310531	-0.47001089	-4.72635202
47.50800000	4.84455933	-1.84559258	-0.77772078	0.60102028	1.04559875	-0.02160049	-5.05790404	-2.90617367	-6.95037445	-16.47770591	12.90711732	-0.00000082	0.00000000	26.69041712	1.38076320	0.20135362	-9.59984849	-2.63088103	0.00000249	0.00000000	-19.54310531	-0.47001089	-4.72635202
47.51000000	4.84455933	-1.84559258	-0.77772078	0.60102028	1.04559875	-0.02160049	-5.05731575	-2.90617367	-6.95037445	-16.75952568	12.96953939	-0.00000082	0.00000000	26.65968865	1.38076320	0.20135362	-9.82252640	-2.78800606	0.00000249	0.00000000	-19.54310531	-0.47001089	-4.72635202
47.51200000	4.84455933	-1.84559258	-0.77772078	0.60102028	1.04559875	-0.02160049	-5.05421479	-2.90617367	-6.95037445	-17.04998344	13.03030704	-0.00000082	0.00000000	26.62779546	1.38076320	0.20135362	-10.04431274	-2.96021891	0.00000249	0.00000000	-19.54310531	-0.47001089	-4.72635202
47.51400000	4.84455933	-1.84559258	-0.77772078	0.60102028	1.04559875	-0.02160049	-5.04869612	-2.90617367	-6.95037445	-17.34945114	13.08900758	-0.00000082	0.00000000	26.59508425	1.38076320	0.20135362	-10.26357161	-3.14677829	0.00000249	0.00000000	-19.54310531	-0.47001089	-4.72635202
47.51600000	4.84455933	-1.84559258	-0.77772078	0.60102028	1.04559875	-0.02160049	-5.04089238	-2.90617367	-6.95037445	-17.65830161	13.14518311	-0.00000082	0.00000000	26.56209874	1.38076320	0.20135362	-10.47873867	-3.34671243	0.00000249	0.00000000	-19.54310531	-0.47001089	-4.72635202
47.51800000	4.84455933	-1.84559258	-0.77772078	0.60102028	1.04559875	-0.02160049	-5.03080919	-2.90617367	-6.95037445	-17.97681652	13.19834297	-0.00000082	0.00000000	26.52932666	1.38076320	0.20135362	-10.68848766	-3.55887047	0.00000249	0.00000000	-19.54310531	-0.47001089	-4.72635202
47.52000000	4.84455933	-1.84559258	-0.77772078	0.60102028	1.04559875	-0.02160049	-5.01865290	-2.90617367	-6.95037445	-18.30534683	13.24795660	-0.00000082	0.00000000	26.49729449	1.38076320	0.20135362	-10.89170621	-3.78191916	0.00000249	0.00000000	-19.54310531	-0.47001089	-4.72635202
47.52200000	4.84455933	-1.84559258	-0.77772078	0.60102028	1.04559875	-0.02160049	-5.00438718	-2.90617367	-6.95037445	-18.64408004	13.29346133	-0.00000082	0.00000000	26.46612729	1.38076320	0.20135362	-11.08773956	-4.01441492	0.00000249	0.00000000	-19.54310531	-0.47001089	-4.72635202
47.52400000	4.84455933	-1.84559258	-0.77772078	0.60102028	1.04559875	-0.02160049	-4.98777551	-2.90617367	-6.95037445	-18.99305932	13.33427219	-0.00000082	0.00000000	26.43564016	1.38076320	0.20135362	-11.27634475	-4.25482237	0.00000249	0.00000000	-19.54310531	-0.47001089	-4.72635202
47.52600000	4.84455933	-1.84559258	-0.77772078	0.60102028	1.04559875	-0.02160049	-4.96866501	-2.90617367	-6.95037445	-19.35232633	13.36976106	-0.00000082	0.00000000	26.40528030	1.38076320	0.20135362	-11.45771144	-4.50155198	0.00000249	0.00000000	-19.54310531	-0.47001089	-4.72635202
47.52800000	4.84455933	-1.84559258	-0.77772078	0.60102028	1.04559875	-0.02160049	-4.94673341	-2.90617367	-6.95037445	-19.72179384	13.39928435	-0.00000082	0.00000000	26.37436073	1.38076320	0.20135362	-11.63232211	-4.75295704	0.00000249	0.00000000	-19.54310531	-0.47001089	-4.72635202
47.53000000	4.84455933	-1.84559258	-0.77772078	0.60102028	1.04559875	-0.02160049	-4.92153592	-2.90617367	-6.95037445	-20.10127251	13.42217929	-0.00000082	0.00000000	26.34210596	1.38076320	0.20135362	-11.80090314	-5.00736169	0.00000249	0.00000000	-19.54310531	-0.47001089	-4.72635202
47.53200000	4.84455933	-1.84559258	-0.77772078	0.60102028	1.04559875	-0.02160049	-4.89262697	-2.90617367	-6.95037445	-20.49053656	13.43775699	-0.00000082	0.00000000	26.30772509	1.38076320	0.20135362	-11.96435614	-5.26308245	0.00000249	0.00000000	-19.54310531	-0.47001089	-4.72635202
47.53400000	4.84455933	-1.84559258	-0.77772078	0.60102028	1.04559875	-0.02160049	-4.85972591	-2.90617367	-6.95037445	-20.88941396	13.44529879	-0.00000082	0.00000000	26.27060851	1.38076320	0.20135362	-12.12362173	-5.51843593	0.00000249	0.00000000	-19.54310531	-0.47001089	-4.72635202
47.53600000	4.84455933	-1.84559258	-0.77772078	0.60102028	1.04559875	-0.02160049	-4.82245678	-2.90617367	-6.95037445	-21.29765910	13.44406675	-0.00000082	0.00000000	26.23023729	1.38076320	0.20135362	-12.27969188	-5.77176003	0.00000249	0.00000000	-19.54310531	-0.47001089	-4.72635202
47.53800000	4.84455933	-1.84559258	-0.77772078	0.60102028	1.04559875	-0.02160049	-4.78041367	-2.90617367	-6.95037445	-21.71499218	13.43331398	-0.00000082	0.00000000	26.18603101	1.38076320	0.20135362	-12.43365281	-6.02144007	0.00000249	0.00000000	-19.54310531	-0.47001089	-4.72635202
47.54000000	4.84455933	-1.84559258	-0.77772078	0.60102028	1.04559875	-0.02160049	-4.73340944	-2.90617367	-6.95037445	-22.14123138	13.41226582	-0.00000082	0.00000000	26.13770510	1.38076320	0.20135362	-12.58646469	-6.26589299	0.00000249	0.00000000	-19.54310531	-0.47001089	-4.72635202
47.54200000	4.84455933	-1.84559258	-0.77772078	0.60102028	1.04559875	-0.02160049	-4.68119340	-2.90617367	-6.95037445	-22.57615415	13.38015068	-0.00000082	0.00000000	26.08496467	1.38076320	0.20135362	-12.73908872	-6.50360296	0.00000249	0.00000000	-19.54310531	-0.47001089	-4.72635202
47.54400000	4.84455933	-1.84559258	-0.77772078	0.60102028	1.04559875	-0.02160049	-4.62361220	-2.90617367	-6.95037445	-23.01958225	13.33618304	-0.00000082	0.00000000	26.02770571	1.38076320	0.20135362	-12.89235409	-6.73311104	0.00000249	0.00000000	-19.54310531	-0.47001089	-4.72635202
47.54600000	4.84455933	-1.84559258	-0.77772078	0.60102028	1.04559875	-0.02160049	-4.56047234	-2.90617367	-6.95037445	-23.47131389	13.27956318	-0.00000082	0.00000000	25.96590096	1.38076320	0.20135362	-13.04699355	-6.95304353	0.00000249	0.00000000	-19.54310531	-0.47001089	-4.72635202
47.54800000	4.84455933	-1.84559258	-0.77772078	0.60102028	1.04559875	-0.02160049	-4.49175395	-2.90617367	-6.95037445	-23.93123711	13.20949852	-0.00000082	0.00000000	25.89964138	1.38076320	0.20135362	-13.20360200	-7.16210365	0.00000249	0.00000000	-19.54310531	-0.47001089	-4.72635202
47.55000000	4.84455933	-1.84559258	-0.77772078	0.60102028	1.04559875	-0.02160049	-4.41743260	-2.90617367	-6.95037445	-24.39923660	13.12517555	-0.00000082	0.00000000	25.82903875	1.38076320	0.20135362	-13.36267569	-7.35909776	0.00000249	0.00000000	-19.54310531	-0.47001089	-4.72635202
47.55200000	4.84455933	-1.84559258	-0.77772078	0.60102028	1.04559875	-0.02160049	-4.33775573	-2.90617367	-6.95037445	-24.87533890	13.02577843	-0.00000082	0.00000000	25.75455971	1.38076320	0.20135362	-13.52442992	-7.54291640	0.00000249	0.00000000	-19.54310531	-0.47001089	-4.72635202
47.55400000	4.84455933	-1.84559258	-0.77772078	0.60102028	1.04559875	-0.02160049	-4.25222418	-2.90617367	-6.95037445	-25.35919430	12.91057239	-0.00000082	0.00000000	25.67633591	1.38076320	0.20135362	-13.68915937	-7.71258189	0.00000249	0.00000000	-19.54310531	-0.47001089	-4.72635202
47.55600000	4.84455933	-1.84559258	-0.77772078	0.60102028	1.04559875	-0.02160049	-4.16058200	-2.90617367	-6.95037445	-25.85057457	12.77878795	-0.00000082	0.00000000	25.59460832	1.38076320	0.20135362	-13.85701241	-7.86724451	0.00000249	0.00000000	-19.54310531	-0.47001089	-4.72635202
47.55800000	4.84455933	-1.84559258	-0.77772078	0.60102028	1.04559875	-0.02160049	-4.06315334	-2.90617367	-6.95037445	-26.34954650	12.62964640	-0.00000082	0.00000000	25.51020402	1.38076320	0.20135362	-14.02775091	-8.00615018	0.00000249	0.00000000	-19.54310531	-0.47001089	-4.72635202
